<?xml version="1.0" encoding="utf-8"?>
<!-- Generator: Adobe Illustrator 25.2.1, SVG Export Plug-In . SVG Version: 6.00 Build 0)  -->
<svg version="1.1" id="Layer_1" xmlns="http://www.w3.org/2000/svg" xmlns:xlink="http://www.w3.org/1999/xlink" x="0px" y="0px"
	 viewBox="0 0 335 520.7" style="enable-background:new 0 0 335 520.7;" xml:space="preserve">
<style type="text/css">
	.st0{fill:#AD7238;}
	.st1{fill:#7C5525;}
	.st2{fill:none;stroke:#263238;stroke-linecap:round;stroke-linejoin:round;}
	.st3{opacity:0.5;}
	.st4{fill:#EBA417;stroke:#263238;stroke-linecap:round;stroke-linejoin:round;}
	.st5{fill-rule:evenodd;clip-rule:evenodd;fill:#BC8312;}
	.st6{fill:none;stroke:#263238;stroke-width:0.5;stroke-linecap:round;stroke-linejoin:round;}
	.st7{fill:#E1E1E6;stroke:#263238;stroke-linecap:round;stroke-linejoin:round;}
	.st8{fill:#61DCFB;stroke:#263238;stroke-linecap:round;stroke-linejoin:round;}
	.st9{fill:#263238;stroke:#263238;stroke-linecap:round;stroke-linejoin:round;}
	.st10{fill:none;stroke:#49606B;stroke-width:0.5;stroke-linecap:round;stroke-linejoin:round;}
	.st11{fill:#5E5E61;stroke:#263238;stroke-linecap:round;stroke-linejoin:round;}
	.st12{fill:#A8A8A8;}
	.st13{fill:#161E22;stroke:#263238;stroke-linecap:round;stroke-linejoin:round;}
	.st14{fill:none;stroke:#6C7D85;stroke-linecap:round;stroke-linejoin:round;}
</style>
<g id="Layer_1-2">
	<path class="st0" d="M222.1,184.2c0,0,18.8,40.1,18.8,42.2s-16.7,11.2-19.9,13.1c-2.5,1.4-5,2.7-7.6,3.8l1.9,18.6
		c0,0,28.7-6.5,40.7-13.1s11.6-13.9,8.8-24.9s-21.3-53.3-21.3-53.3L222.1,184.2z"/>
	<path class="st1" d="M256,248.7c12-6.5,11.6-13.9,8.8-24.9s-21.3-53.3-21.3-53.3l-3,1.9l-1,1.8c0,0,17.3,42.5,18.3,56.6
		c0.7,9.5-18.4,21.4-31.1,28.1C236.2,256.4,249,252.6,256,248.7z"/>
	<path class="st2" d="M222.1,184.2c0,0,18.8,40.1,18.8,42.2s-16.7,11.2-19.9,13.1c-2.5,1.4-5,2.7-7.6,3.8l1.9,18.6
		c0,0,28.7-6.5,40.7-13.1s11.6-13.9,8.8-24.9s-21.3-53.3-21.3-53.3L222.1,184.2z"/>
	<path class="st0" d="M86.6,175.3c0,0-13.7,50.2-14.1,59.1s27.2,26.4,28.2,27.4s-1.6-30.5-1.6-30.5l9.3-45.9L86.6,175.3z"/>
	<g class="st3">
		<path class="st1" d="M92.9,179.4l-0.3-1.4l-6-2.8c0,0-13.7,50.2-14.1,59.1s27.2,26.4,28.2,27.4c0.4,0.4,0.2-4.3-0.1-10.1
			c-8.2-7-20-16.8-21.4-20.9"/>
	</g>
	<path class="st2" d="M86.6,175.3c0,0-13.7,50.2-14.1,59.1s27.2,26.4,28.2,27.4s-1.6-30.5-1.6-30.5l9.3-45.9L86.6,175.3z"/>
	<path class="st4" d="M151,124.9c0,0-5.3,3.8-15.6,4.2s-10.8-7-23.6-7c-15.5,0-35,49.1-35,49.1s9.7,9.5,19.2,13.5
		c5.3,2.3,10.8,3.9,16.4,4.9l1.5,32.3h104.6l1.2-32.3l32.7-21.2c0,0-16-28.7-23.8-39.4s-20.9-6.8-24.9-4s-15.9,3.4-20.2,2.8
		c-5.7-1.3-11.3-2.8-16.9-4.6C166.6,123.1,159.8,117.4,151,124.9z"/>
	<path class="st5" d="M113,189.6l1-53.5l-12.5,50.3L113,189.6z"/>
	<path class="st5" d="M205.7,222v-62.9c0-15.9-13.5-20.9-31.5-27.5c-6.3-2.3-13.1-4.8-20-8l-0.7-0.1c7.8-5.1,13.6-0.3,13.6-0.3
		c5.6,1.8,11.2,3.4,16.9,4.6c4.4,0.6,16.2,0,20.2-2.8s17.1-6.7,24.9,4s23.9,39.4,23.9,39.4l-32.8,21.2L219,222H205.7z"/>
	<path class="st6" d="M113.4,136.3l-0.4,53.6"/>
	<path class="st6" d="M117.2,141.1c0,0,1.5,26.1,7.1,40.7"/>
	<path class="st6" d="M125.2,184c1.2,3.6,2.7,7,4.4,10.3"/>
	<path class="st6" d="M120.6,138.2c2,9.5,4.8,18.8,8.4,27.8"/>
	<path class="st6" d="M211.5,142.8c0,0-5.1,20.7-9.5,30"/>
	<path class="st6" d="M219.7,189.7l-0.2-41.8"/>
	<path class="st6" d="M217.4,148.7c0,0-3.8,26.4-13.1,40.3"/>
	<path class="st6" d="M212.8,183.8c0,0-4.2,8-7.2,12.2"/>
	<path class="st6" d="M145,128.1c0,0,3,18.1,7.2,27.4s11.6,11.2,17.9,8.4s11-16.2,10.6-33.5"/>
	<path class="st7" d="M130.1,90.1c0,0-4-6.9-7.2-3.4s2.5,11.8,5.7,14.6c3.2,2.7,5.5,1.1,5.3-1.9S130.1,90.1,130.1,90.1z"/>
	<path class="st0" d="M130.1,90.1c0,0-4-6.9-7.2-3.4s2.5,11.8,5.7,14.6c3.2,2.7,5.5,1.1,5.3-1.9S130.1,90.1,130.1,90.1z"/>
	<path class="st7" d="M193.9,90.1c0,0,4-6.9,7.2-3.4s-2.5,11.8-5.7,14.6s-5.5,1.1-5.3-1.9S193.9,90.1,193.9,90.1z"/>
	<path class="st0" d="M193.9,90.1c0,0,4-6.9,7.2-3.4s-2.5,11.8-5.7,14.6s-5.5,1.1-5.3-1.9S193.9,90.1,193.9,90.1z"/>
	<path class="st0" d="M149.1,123.4c2,9,4.5,17.9,7.6,26.6c3.8,9.5,11,9.5,13.9,3.4s4.9-28.9,4.9-28.9S155.6,127.2,149.1,123.4z"/>
	<path class="st0" d="M130.5,92.4c0,0,5.5,19.4,15.9,30.8s14.1,14.1,19.6,13.3s11.4-8,19.6-22.9s8.8-26.4,9.5-27.4
		s-1.8-22.2-13.5-31.2s-24.9-13.1-36.3-3.2S126.7,77.8,130.5,92.4z"/>
	<path class="st2" d="M130.5,92.4c0,0,5.5,19.4,15.9,30.8s14.1,14.1,19.6,13.3s11.4-8,19.6-22.9s8.8-26.4,9.5-27.4
		s-1.8-22.2-13.5-31.2s-24.9-13.1-36.3-3.2S126.7,77.8,130.5,92.4z"/>
	<path class="st2" d="M165.9,102.5c-0.7,4.1-1,8.3-1.1,12.5c0.2,4.2,1.5,5.5-0.4,5.9s-4-2.5-4-2.5"/>
	<path class="st2" d="M144.8,105.9c2.5,1.8,5.9,1.9,8.4,0.2"/>
	<path class="st2" d="M171.6,105.9c1.2,0.9,2.7,1.4,4.2,1.4c1.5,0,3-0.4,4.2-1.2"/>
	<path class="st2" d="M158.3,98.8c0,0-4-9.9-17.3-5.3"/>
	<path class="st2" d="M169.4,97.6c0,0,3.4-9.7,15.4-4"/>
	<path class="st2" d="M160.9,106.7c0,5.4-6.2,9.8-13.9,9.8s-13.9-4.4-13.9-9.8s5.8-7.7,13.5-7.7S160.9,101.2,160.9,106.7z"/>
	<path class="st2" d="M192.9,106.7c0,5.4-6.2,9.8-13.9,9.8s-13.9-4.4-13.9-9.8s5.8-7.7,13.5-7.7S192.9,101.2,192.9,106.7z"/>
	<path class="st7" d="M23.4,270l-0.9,191.4c0,0.6,0.3,1.2,0.8,1.6c0.5,0.4,1.2,0.7,1.9,0.7c0.7,0,1.3-0.2,1.9-0.7
		c0.5-0.4,0.8-1,0.8-1.6l6.4-191.2L23.4,270z"/>
	<path class="st7" d="M9.6,314.4L8.8,512.2c0,0.3,0.1,0.6,0.2,0.9c0.1,0.3,0.3,0.5,0.5,0.7c0.2,0.2,0.5,0.4,0.8,0.5
		c0.3,0.1,0.6,0.2,0.9,0.2c0.6,0,1.2-0.2,1.7-0.6c0.4-0.4,0.7-1,0.7-1.5l5.8-197.6L9.6,314.4z"/>
	<path class="st7" d="M311.5,270l0.8,191.4c0,0.3,0,0.6-0.2,0.9c-0.1,0.3-0.3,0.5-0.5,0.7c-0.2,0.2-0.5,0.4-0.8,0.5
		c-0.3,0.1-0.6,0.2-0.9,0.2c-0.6,0-1.2-0.2-1.7-0.6c-0.4-0.4-0.7-1-0.7-1.6l-5.8-191.2L311.5,270z"/>
	<path class="st7" d="M325.2,314.4l0.8,197.8c0,0.3-0.1,0.6-0.2,0.9c-0.1,0.3-0.3,0.5-0.5,0.7c-0.2,0.2-0.5,0.4-0.8,0.5
		c-0.3,0.1-0.6,0.2-0.9,0.2c-0.6,0-1.2-0.2-1.7-0.6c-0.4-0.4-0.7-1-0.7-1.5l-5.8-197.6L325.2,314.4z"/>
	<path class="st7" d="M107.6,322.9l-0.5,174.9c-0.1,0.4,0.1,0.9,0.3,1.2c0.3,0.6,1.1,0.8,1.7,0.5c0.2-0.1,0.3-0.3,0.5-0.5
		c0.3-0.3,0.4-0.8,0.4-1.2l3.5-174.7L107.6,322.9z"/>
	<path class="st7" d="M228.2,316.5l0.5,154c0,0.4-0.1,0.7-0.4,1c-0.3,0.3-0.7,0.5-1.1,0.5c-0.4,0-0.8-0.2-1.1-0.5
		c-0.3-0.3-0.4-0.6-0.4-1l-3.4-153.9L228.2,316.5z"/>
	<path class="st7" d="M105.6,316.5l0.5,154c0,0.4-0.1,0.7-0.4,1c-0.3,0.3-0.7,0.5-1.1,0.5c-0.4,0-0.8-0.2-1.1-0.5
		c-0.3-0.3-0.4-0.6-0.3-1l-3.5-153.9L105.6,316.5z"/>
	<path class="st7" d="M225,322.9l0.6,174.9c0,0.4-0.1,0.9-0.4,1.2c-0.5,0.7-1.6,0.8-2.3,0.3c-0.1-0.1-0.2-0.2-0.3-0.3
		c-0.3-0.3-0.5-0.7-0.4-1.2l-4-174.8L225,322.9z"/>
	<path class="st7" d="M165.2,336.1c42.2,0,76.4-7.8,76.4-17.4s-34.2-17.4-76.4-17.4s-76.5,7.8-76.5,17.4S123,336.1,165.2,336.1z"/>
	<path class="st7" d="M128,466.1c0,0-4,5.7-1.1,8.5s5.7,1.7,5.4,4.6s-4.9,12.5-8.9,22.8s4.3,20.5,12,17.6s6.9-31.3,8-36.4
		s2-6,1.7-10.8s-0.6-10-4.3-10.5S129.7,464.1,128,466.1z"/>
	<path class="st8" d="M140.3,511.8c-5.1-2-13.1-1.6-17.5-1.1c1.5,6.4,7.2,11,12.7,9C137.7,518.8,139.2,515.8,140.3,511.8z"/>
	<path class="st0" d="M119.1,453.6c0,0,8.3,13.9,10.6,17.6s10,2.6,10.9-2.6s-3.2-19.3-3.2-19.3l-17.2,4.3H119.1z"/>
	<path class="st8" d="M99.3,431.4c0,0-2.3,3.7-1.2,6.3s4.3,10,6.3,13.6s11.2,6,21.8,4.3s16.6-6.5,16.9-10.8s-1.7-9.9-3.2-16.8
		s-5.1-6.5-10.3-6.5S103.7,427.5,99.3,431.4z"/>
	<path class="st9" d="M130.3,347.8c0.1-7,4.2-10.5,4.5-15.2c0.5-6.3-0.1-12.7-1.6-18.9l-7.8-10.7c-22.5,0.3-38.7,0.7-38.9,0.8
		c-0.9,0.3-1.4,5.1-2,9.1c0,0-9.6,1.2-7.8,27.7c0.2,3.7,9.9,46.4,10.6,51.2c4.3,29.7,13.9,44.6,13.9,44.6s0.9,3.7,12,2.9
		s22.3-8.2,22.3-8.2S129.7,373.1,130.3,347.8z"/>
	<path class="st0" d="M103.9,313.6c7.5,0.4,15,1.5,22.3,3.4c9.7,2.9,26.9,8.5,30.9,8.5s2.9-14.8,2.9-17.6s-51.5-4.6-57.8-4.6
		S103.9,313.6,103.9,313.6z"/>
	<path class="st8" d="M160.1,308c0,0-4.6,2.3-6.3,10.8s-4,13.1-0.6,15.4s18.3,4,20.6,1.7s8.6-13.7,9.7-21S160.1,308,160.1,308z"/>
	<path class="st9" d="M179.5,310.8c-2.7,3-4.8,6.5-6.3,10.2c-1.2,3.9-2.2,7.9-2.9,12c5.5,1.5,10.8,3.4,16,5.7
		c9.2,4,24.6,6.8,39.5,10.2s18.9,6.8,24.1,6.8s11.5-4,19.5-13.6s1.1-30.2-6.9-36.4s-51-11.4-56.7-9.7S179.5,310.8,179.5,310.8z"/>
	<path class="st10" d="M129.4,335.3c0,0-5.9,62.8-18,72.6"/>
	<path class="st10" d="M125.2,395c0,0-4.7,20.5-17,28.6"/>
	<path class="st10" d="M201.3,323.9c0,0-18.3,1.1-6.3,9.1s33.8,13.1,33.8,13.1"/>
	<path class="st11" d="M334.4,306.6l-6.2-5.5l-14.3-30.7c-1.4-2.9-4.3-4.7-7.5-4.6H28.8c-3.2,0-6.1,1.8-7.5,4.6L3.4,308.6l-2.9-1.1
		v8.8l0.1-0.1c0.2,1.2,0.8,2.2,1.7,3c0.9,0.8,2.1,1.2,3.2,1.1h324c1.2,0,2.5-0.4,3.4-1.3c0.9-0.8,1.5-2,1.5-3.3L334.4,306.6z"/>
	<path class="st7" d="M329.6,312.3H5.6c-0.8,0-1.6-0.1-2.3-0.5c-0.7-0.4-1.3-0.9-1.8-1.5c-0.9-1.3-1.1-3.1-0.4-4.5l20.2-43.4
		c1.4-2.9,4.3-4.7,7.5-4.6h277.6c1.6,0,3.1,0.4,4.4,1.2c1.3,0.8,2.4,2,3.1,3.4l20.2,43.4c1,2.3,0,5-2.2,6.1
		C331.2,312.2,330.4,312.4,329.6,312.3z"/>
	<g class="st3">
		<path class="st12" d="M22,283.1c0,0-7.3,5-2.8,6.8s57.3,0.5,63.7-1.4s13.8-18.7,13.8-21.4s-9.2-4.7-12.7-4.9s-48.3,2.6-48.3,2.6
			L22,283.1z"/>
	</g>
	<g class="st3">
		<path class="st12" d="M284.2,291.8c10.4,0,18.8-3.5,18.8-7.8s-8.4-7.8-18.8-7.8s-18.8,3.5-18.8,7.8S273.9,291.8,284.2,291.8z"/>
	</g>
	<g class="st3">
		<path class="st12" d="M164.6,301.4c37.2,0,67.4-5.6,67.4-12.5s-30.2-12.5-67.4-12.5s-67.4,5.6-67.4,12.5S127.4,301.4,164.6,301.4z
			"/>
	</g>
	<path class="st8" d="M270.5,253.6c0,0-1.2-4.9-5.3-3.3s-3.7,12.5-2.9,18.6s6.4,3.3,6.4,3.3v-3.7c0,0-2,1.6-3.1-0.6
		s-0.8-13.5,0.2-13.3s3.1,3.7,3.1,3.7S269.5,257.9,270.5,253.6z"/>
	<path class="st8" d="M267.5,254.4v26.8c0,3.2,7.3,5.7,16.3,5.7s16.3-2.6,16.3-5.7v-26.8H267.5z"/>
	<path class="st7" d="M300.2,254.4c0,2.7-7.3,4.9-16.3,4.9s-16.3-2.2-16.3-4.9s7.3-4.9,16.3-4.9S300.2,251.7,300.2,254.4z"/>
	<path class="st7" d="M298,254.4c0,2.4-6.4,4.3-14.2,4.3s-14.2-1.9-14.2-4.3s6.4-4.3,14.2-4.3S298,252,298,254.4z"/>
	<path class="st9" d="M272.9,257.1c7.1,2.1,14.7,2.1,21.9,0C287.7,255.1,280.1,255.1,272.9,257.1z"/>
	<path class="st7" d="M20,266.7l0.2,9.2l62.3,0.6v-10.6L20,266.7z"/>
	<path class="st7" d="M82.4,276.5l9.1-19.4v-5.7L82,267.7L82.4,276.5z"/>
	<path class="st7" d="M20,275l0.2,9.2l62.3,0.6v-10.6L20,275z"/>
	<path class="st7" d="M82.4,284.9l9.1-19.4v-5.7L82,276L82.4,284.9z"/>
	<path class="st8" d="M44,243.4c0,0,1.4-2.9-0.6-4.1s-4.3,1.7-5.5,2.7s-27.1,18-28,20.6s0,8.5,5.6,9.2s10.5-3.1,13-3.7l3.4-0.8
		l17.1-22.9L44,243.4z"/>
	<path class="st7" d="M15.4,271.8c5.5,0.6,10.5-3.1,13-3.7l3.4-0.8l0.6-0.8l-16-3.2c-0.9-0.8-2-1.3-3.2-1.4
		c-1.2-0.1-2.4,0.2-3.4,0.8C9.1,265.2,9.9,271.1,15.4,271.8z"/>
	<path class="st8" d="M16.5,263.2h48.1c15,0,19.5-0.8,19.5-0.8l9.2-19c0,0-29.2,1.8-38.2,1.2c-3.7-0.1-7.4-0.5-11.1-1.2L16.5,263.2z
		"/>
	<path class="st7" d="M16.5,263.2l0.8,3.7c0,0,39.1,0.2,49.3,0.2s18.1,0.4,18.1,0.4l-0.6-5.1L16.5,263.2z"/>
	<path class="st7" d="M84.7,267.5l8.6-19.6v-4.5l-9.2,19L84.7,267.5z"/>
	<path class="st13" d="M223.5,290.4H105.7c-0.3,0-0.5-0.1-0.8-0.1c-0.2-0.1-0.5-0.2-0.7-0.4c-0.2-0.2-0.3-0.4-0.4-0.6
		c-0.1-0.2-0.2-0.5-0.2-0.8c0-0.3,0.1-0.5,0.2-0.8c0.1-0.2,0.2-0.5,0.4-0.6c0.2-0.2,0.4-0.3,0.7-0.4c0.2-0.1,0.5-0.1,0.8-0.1h117.8
		c0.5,0,1,0.2,1.4,0.6c0.2,0.2,0.3,0.4,0.4,0.6c0.2,0.5,0.2,1,0,1.5c-0.1,0.2-0.2,0.5-0.4,0.6C224.5,290.2,224,290.4,223.5,290.4z"
		/>
	<path class="st13" d="M224.6,286.5H104.8c-0.4,0-0.9-0.2-1.2-0.5c-0.3-0.3-0.5-0.7-0.5-1.1l-6.5-77.7c0-0.2,0-0.5,0.1-0.7
		c0.1-0.2,0.2-0.5,0.4-0.6c0.2-0.2,0.4-0.3,0.6-0.4c0.2-0.1,0.5-0.2,0.7-0.1h132.8c0.2,0,0.5,0.1,0.7,0.1c0.2,0.1,0.4,0.2,0.6,0.4
		c0.2,0.2,0.3,0.4,0.4,0.6c0.1,0.2,0.1,0.5,0.1,0.7l-6.5,77.8c0,0.4-0.2,0.9-0.6,1.1C225.4,286.3,225,286.5,224.6,286.5z"/>
	<path class="st14" d="M292.9,186.4c1.8-1.4,3.1-3.4,3.7-5.7c0.4-1.7,0.3-3.4-0.1-5.1"/>
	<path class="st14" d="M279.2,247.3c0,0,11.4-6.8,7.7-14.6s-16.3-13-16.3-25.1c0-10.5,11.2-14.4,18.5-18.6"/>
	<path class="st14" d="M289.8,247.1c0,0,6.4-4.2,6.4-10.9c0-4.5-4.8-7.4-11.2-14.6"/>
	<path class="st14" d="M281.4,217.1c0,0-4.2-3.3-1.1-9.4"/>
</g>
<g id="Layer_2_1_">
	
		<image style="overflow:visible;enable-background:new    ;" width="110" height="111" id="Layer_3_Image" xlink:href="A27976B0.png"  transform="matrix(0.24 0 0 0.24 158.04 211.75)">
	</image>
	
		<image style="overflow:visible;enable-background:new    ;" width="54" height="58" id="Layer_5_Image" xlink:href="A27976B1.png"  transform="matrix(0.24 0 0 0.24 155.88 265.51)">
	</image>
	
		<image style="overflow:visible;enable-background:new    ;" width="97" height="103" id="Angular_full_color_logo_Image" xlink:href="A27976B7.png"  transform="matrix(0.24 0 0 0.24 192.6 242.71)">
	</image>
	
		<image style="overflow:visible;enable-background:new    ;" width="110" height="98" id="reactjs-icon_Image" xlink:href="A27976B2.png"  transform="matrix(0.24 0 0 0.24 110.52 224.95)">
	</image>
	
		<image style="overflow:visible;enable-background:new    ;" width="90" height="104" id="Oracle_SQL_Developer-Logo.wine_Image" xlink:href="A27976B3.png"  transform="matrix(0.24 0 0 0.24 150.84 254.95)">
	</image>
</g>
<g id="Layer_2">
	<ellipse cx="124.5" cy="80.3" rx="6.6" ry="7.2"/>
	<ellipse cx="131.6" cy="81.2" rx="6.6" ry="7.2"/>
	<ellipse cx="138.3" cy="76.3" rx="6.6" ry="7.2"/>
	<ellipse cx="144.8" cy="73.1" rx="6.6" ry="7.2"/>
	<ellipse cx="156.3" cy="70.2" rx="6.6" ry="7.2"/>
	<ellipse cx="166.6" cy="71.2" rx="6.6" ry="7.2"/>
	<ellipse cx="177.1" cy="74" rx="6.6" ry="7.2"/>
	<ellipse cx="185.6" cy="78.6" rx="6.6" ry="7.2"/>
	<ellipse cx="192.9" cy="82.4" rx="6.6" ry="7.2"/>
	<ellipse cx="198.9" cy="80.3" rx="6.6" ry="7.2"/>
	<ellipse cx="199.6" cy="71.2" rx="6.6" ry="7.2"/>
	<ellipse cx="197.6" cy="60.3" rx="6.6" ry="7.2"/>
	<ellipse cx="192.3" cy="51.8" rx="6.6" ry="7.2"/>
	<ellipse transform="matrix(0.4694 -0.883 0.883 0.4694 59.6439 181.538)" cx="180.9" cy="41.1" rx="7.2" ry="10.6"/>
	<ellipse transform="matrix(0.4694 -0.883 0.883 0.4694 53.7993 167.2892)" cx="166.1" cy="38.9" rx="7.5" ry="10.6"/>
	<ellipse transform="matrix(0.866 -0.5 0.5 0.866 -12.3416 73.8387)" cx="131.6" cy="59.9" rx="9.4" ry="10.6"/>
	<ellipse transform="matrix(0.866 -0.5 0.5 0.866 -1.091 81.4643)" cx="151.5" cy="42.8" rx="9.4" ry="10.6"/>
	<ellipse transform="matrix(0.866 -0.5 0.5 0.866 -5.2885 76.3179)" cx="139.8" cy="48" rx="10.8" ry="10.6"/>
	<ellipse cx="124.1" cy="70.1" rx="6.6" ry="8.5"/>
	<path d="M122,87.6c0,0,1.7-5.4,7,0c5.7-2.4,21.7-12.8,21.7-12.8l22.1,1.1l21.9,11.7c0,0,3.7-4.4,7.3-1.2
		c-1.4-12.8,6.1-49.2-40-50.7C115.9,34.2,122,87.6,122,87.6z"/>
</g>
</svg>
